<?xml version="1.0" standalone="no"?>
<!DOCTYPE svg PUBLIC "-//W3C//DTD SVG 20010904//EN"
 "http://www.w3.org/TR/2001/REC-SVG-20010904/DTD/svg10.dtd">
<svg version="1.0" xmlns="http://www.w3.org/2000/svg"
 width="180.000000pt" height="180.000000pt" viewBox="0 0 180.000000 180.000000"
 preserveAspectRatio="xMidYMid meet">
<metadata>
Created by potrace 1.11, written by Peter Selinger 2001-2013
</metadata>
<g transform="translate(0.000000,180.000000) scale(0.100000,-0.100000)"
fill="#000000" stroke="none">
<path d="M792 1758 l-20 -31 57 -42 c115 -85 188 -190 220 -315 17 -69 19
-106 7 -193 -5 -38 -5 -39 4 -12 47 141 18 315 -75 455 -43 65 -144 170 -163
170 -6 0 -19 -14 -30 -32z"/>
<path d="M1015 1756 l-28 -24 42 -49 c47 -53 115 -186 127 -248 19 -102 4
-253 -28 -293 -6 -7 -8 -15 -5 -18 3 -3 14 11 25 33 70 136 69 316 -2 477 -27
61 -82 146 -95 146 -4 0 -21 -11 -36 -24z"/>
<path d="M577 1718 c-2 -13 -7 -30 -11 -39 -5 -12 3 -19 36 -28 24 -7 70 -28
103 -46 154 -85 250 -221 275 -389 l8 -51 1 45 c4 201 -128 400 -338 505 -60
31 -67 31 -74 3z"/>
<path d="M1238 1699 l-37 -19 30 -63 c88 -190 63 -424 -61 -557 -15 -16 -24
-30 -20 -30 19 0 105 110 132 168 67 147 69 338 5 490 l-12 30 -37 -19z"/>
<path d="M378 1600 c-3 -16 -2 -34 1 -38 3 -5 35 -12 70 -16 125 -13 237 -63
324 -145 61 -57 84 -89 114 -160 19 -45 23 -49 18 -21 -10 58 -72 172 -122
224 -80 82 -183 142 -296 172 -83 22 -104 19 -109 -16z"/>
<path d="M1417 1583 c-21 -3 -27 -9 -23 -21 12 -38 22 -145 19 -194 -6 -77
-37 -175 -77 -241 -39 -65 -73 -101 -131 -140 -51 -34 -41 -35 20 0 154 86
257 285 256 496 0 91 -4 108 -24 106 -7 -1 -25 -4 -40 -6z"/>
<path d="M258 1482 c-51 -3 -53 -6 -42 -59 l6 -30 61 12 c145 26 295 -2 405
-76 24 -16 48 -26 54 -23 7 5 8 2 3 -5 -4 -8 1 -18 13 -27 11 -7 34 -35 51
-61 17 -25 31 -42 31 -36 0 6 -19 39 -41 73 -106 158 -312 247 -541 232z"/>
<path d="M1550 1397 c0 -59 -30 -171 -63 -242 -56 -117 -162 -216 -270 -251
l-42 -14 40 6 c104 16 246 116 315 224 42 65 86 181 95 248 7 50 6 52 -17 53
-12 0 -31 2 -40 4 -14 2 -18 -4 -18 -28z"/>
<path d="M240 1325 c-30 -6 -79 -19 -107 -29 l-53 -17 21 -40 20 -40 35 20
c64 38 173 65 264 65 117 0 209 -29 297 -95 l68 -50 -58 56 c-64 61 -123 95
-211 120 -72 21 -203 26 -276 10z"/>
<path d="M1646 1188 c-66 -190 -223 -330 -407 -363 -66 -12 -69 -13 -29 -14
70 -1 174 25 243 61 80 41 202 163 243 243 47 89 49 102 20 109 -13 3 -30 8
-38 11 -9 4 -19 -12 -32 -47z"/>
<path d="M360 1199 c-69 -6 -150 -29 -215 -62 -51 -25 -125 -76 -125 -85 1 -4
11 -20 25 -36 l23 -29 46 40 c167 147 414 182 586 82 21 -12 29 -14 20 -5 -19
19 -125 71 -165 81 -61 15 -132 20 -195 14z"/>
<path d="M403 1078 c-120 -18 -247 -90 -343 -196 l-60 -65 37 -22 36 -23 42
57 c56 76 89 107 160 153 108 70 282 103 369 69 16 -6 31 -9 33 -7 10 9 -107
37 -164 40 -32 1 -82 -1 -110 -6z"/>
<path d="M1690 980 c-37 -58 -120 -136 -182 -173 -98 -57 -235 -83 -338 -64
-29 5 -28 4 10 -9 27 -9 80 -16 130 -16 107 0 215 34 311 98 68 45 172 149
167 166 -2 5 -17 18 -34 29 l-32 19 -32 -50z"/>
<path d="M495 983 c-132 -28 -252 -105 -341 -218 -43 -54 -98 -165 -88 -175 5
-4 23 -12 40 -18 31 -10 32 -9 44 31 22 75 74 160 135 223 90 91 180 138 295
154 l55 7 -60 1 c-33 0 -69 -2 -80 -5z"/>
<path d="M544 896 c-89 -33 -141 -66 -207 -133 -70 -70 -139 -202 -160 -308
l-14 -70 36 -5 c20 -3 39 -3 42 0 4 3 10 34 13 70 9 81 44 185 85 249 47 73
133 148 206 182 36 16 65 31 65 34 0 6 5 8 -66 -19z"/>
<path d="M551 799 c-119 -79 -198 -208 -226 -369 -9 -47 -9 -196 0 -210 5 -9
31 -7 71 5 8 2 7 20 -1 62 -40 197 47 431 194 525 25 15 40 28 34 28 -6 0 -38
-18 -72 -41z"/>
<path d="M1680 769 c-25 -22 -76 -55 -115 -75 -166 -82 -348 -79 -480 8 l-30
20 29 -25 c99 -85 278 -119 436 -81 72 17 189 70 234 107 l29 24 -23 31 c-13
18 -26 32 -29 32 -3 -1 -26 -19 -51 -41z"/>
<path d="M606 730 c-135 -141 -177 -359 -111 -568 l26 -82 39 20 39 20 -29 62
c-40 85 -58 169 -54 253 6 135 37 221 114 308 58 66 44 59 -24 -13z"/>
<path d="M678 693 c-68 -107 -93 -232 -73 -376 11 -83 115 -298 143 -297 4 1
20 11 36 25 l29 23 -40 46 c-142 161 -180 389 -94 559 16 31 28 57 27 57 -2 0
-14 -17 -28 -37z"/>
<path d="M1050 625 c121 -131 325 -188 525 -144 82 18 135 37 135 49 0 4 -7
21 -15 38 l-16 30 -63 -28 c-123 -56 -266 -69 -385 -34 -62 18 -104 40 -171
92 l-45 36 35 -39z"/>
<path d="M724 588 c-26 -150 7 -289 102 -424 41 -58 137 -154 154 -154 4 0 17
14 28 32 l20 31 -41 30 c-112 79 -194 187 -227 297 -24 77 -32 160 -20 201 5
16 5 29 0 29 -4 0 -12 -19 -16 -42z"/>
<path d="M815 555 c9 -196 130 -366 333 -469 30 -15 57 -24 60 -21 4 4 12 21
18 38 l11 32 -67 26 c-187 72 -322 231 -349 409 l-10 65 4 -80z"/>
<path d="M960 623 c0 -23 89 -140 134 -176 130 -102 289 -143 484 -125 9 1 10
12 6 37 -9 48 -14 53 -54 40 -50 -14 -187 -14 -251 1 -119 28 -232 103 -293
194 -14 21 -26 34 -26 29z"/>
<path d="M895 580 c3 -19 20 -66 39 -105 75 -153 256 -276 442 -302 l42 -5 4
36 c2 21 1 39 -2 41 -3 2 -33 6 -65 10 -77 8 -178 39 -235 73 -94 54 -180 154
-217 250 l-14 37 6 -35z"/>
</g>
</svg>
